<svg width="58" height="58" viewBox="0 0 58 58" fill="none" xmlns="http://www.w3.org/2000/svg">
<circle cx="29" cy="29" r="26.6613" stroke="#1D1D1B" stroke-width="4.67742"/>
<path d="M39.9724 36.935C39.9724 34.6161 39.9724 32.3583 39.9724 30.0394C39.9724 28.3917 39.7894 26.8661 38.935 25.4626C37.7146 23.3878 35.5177 22.0453 33.0768 21.8012C31.9783 21.6791 30.8189 21.7402 29.7205 21.7402C29.7205 21.252 29.7205 20.7028 29.7205 20.2146C31.3681 19.6654 32.5886 18.1398 32.5886 16.3091C32.5886 14.1732 30.9409 11 28.5 11C26.0591 11 24.4114 14.1732 24.4114 16.3091C24.4114 18.1398 25.6319 19.6654 27.2795 20.2146V21.7402C26.6693 21.7402 26.0591 21.7402 25.4488 21.7402C21.1772 21.7402 17.8209 25.1575 17.8209 29.4291V36.935H17.0276C14.7697 36.935 13 38.7657 13 40.9626C13 43.2205 14.8307 44.9902 17.0276 44.9902H39.9724C42.2303 44.9902 44 43.1595 44 40.9626C44 38.7657 42.2303 36.935 39.9724 36.935ZM26.8524 16.3091C26.8524 15.0886 27.8898 13.4409 28.5 13.4409C29.1102 13.4409 30.1476 15.0886 30.1476 16.3091C30.1476 16.7362 29.9646 17.1024 29.7205 17.4075C29.7205 17.2854 29.7205 17.2244 29.7205 17.1024C29.7205 16.4921 29.1713 15.8819 28.5 15.8819C27.8287 15.8819 27.2795 16.4311 27.2795 17.1024V17.4075C27.0354 17.1024 26.8524 16.7362 26.8524 16.3091ZM25.2047 24.1811C27.5236 24.1201 29.8425 24.1811 32.1614 24.1811C33.748 24.1811 35.2736 24.7913 36.311 26.0118C36.9213 26.7441 37.2264 27.5374 37.3484 28.3307L32.8327 26.8051C31.7953 26.439 30.6358 26.5 29.5984 26.9272L26.9744 28.0866C26.3642 28.3307 25.6929 28.3307 25.1437 27.9646L21.5433 25.7067C22.6417 24.7913 23.8622 24.2421 25.2047 24.1811ZM20.4449 27.8425L23.9843 30.0394C25.2047 30.8327 26.7913 30.9547 28.0728 30.3445L30.6968 29.185C31.124 29.002 31.6732 28.9409 32.1004 29.124L37.4705 30.9547V36.874H20.2618C20.2618 34.7382 20.2618 32.6024 20.2618 30.4665C20.2618 29.6122 20.2618 28.6969 20.4449 27.8425ZM39.9724 42.6102H17.0276C16.1122 42.6102 15.4409 41.878 15.4409 41.0236C15.4409 40.1693 16.1732 39.437 17.0276 39.437H39.9724C40.8878 39.437 41.5591 40.1693 41.5591 41.0236C41.5591 41.878 40.8268 42.6102 39.9724 42.6102Z" fill="black"/>
</svg>
