<svg width="58" height="58" viewBox="0 0 58 58" fill="none" xmlns="http://www.w3.org/2000/svg">
<circle cx="29" cy="29" r="26.6613" stroke="#1D1D1B" stroke-width="4.67742"/>
<path d="M34.1538 26.5577C35.6642 25.5481 36.5769 23.8519 36.5769 22.0265C36.5769 21.2835 36.4315 20.5485 36.1569 19.8538L35.3654 17.875V11.2115C35.3654 10.5412 34.8242 10 34.1538 10C33.4835 10 32.9423 10.5412 32.9423 11.2115V16.9219C31.0442 17.1804 29.3723 18.3596 28.5 20.0962C27.6277 18.3515 25.9558 17.1723 24.0577 16.9219V11.2115C24.0577 10.5412 23.5165 10 22.8462 10C22.1758 10 21.6346 10.5412 21.6346 11.2115V17.875L20.8431 19.8619C20.5685 20.5485 20.4231 21.2835 20.4231 22.0265C20.4231 23.8438 21.3358 25.5481 22.8462 26.5577C19.6719 31.84 18 37.8896 18 44.0523V45.9423C22.4019 48.0908 26.4 48.3654 28.5 48.3654C30.6 48.3654 34.5981 48.0908 39 45.9423V44.0523C39 37.8896 37.3281 31.84 34.1538 26.5577Z" fill="black"/>
</svg>
