<svg width="31" height="34" viewBox="0 0 31 34" fill="none" xmlns="http://www.w3.org/2000/svg">
<path d="M26.9724 25.935C26.9724 23.6161 26.9724 21.3583 26.9724 19.0394C26.9724 17.3917 26.7894 15.8661 25.935 14.4626C24.7146 12.3878 22.5177 11.0453 20.0768 10.8012C18.9783 10.6791 17.8189 10.7402 16.7205 10.7402C16.7205 10.252 16.7205 9.70276 16.7205 9.21457C18.3681 8.66535 19.5886 7.13976 19.5886 5.30906C19.5886 3.17323 17.9409 0 15.5 0C13.0591 0 11.4114 3.17323 11.4114 5.30906C11.4114 7.13976 12.6319 8.66535 14.2795 9.21457V10.7402C13.6693 10.7402 13.0591 10.7402 12.4488 10.7402C8.17716 10.7402 4.82087 14.1575 4.82087 18.4291V25.935H4.02756C1.76968 25.935 0 27.7657 0 29.9626C0 32.2205 1.83071 33.9902 4.02756 33.9902H26.9724C29.2303 33.9902 31 32.1595 31 29.9626C31 27.7657 29.2303 25.935 26.9724 25.935ZM13.8524 5.30906C13.8524 4.08858 14.8898 2.44095 15.5 2.44095C16.1102 2.44095 17.1476 4.08858 17.1476 5.30906C17.1476 5.73622 16.9646 6.10236 16.7205 6.40748C16.7205 6.28543 16.7205 6.22441 16.7205 6.10236C16.7205 5.49213 16.1713 4.88189 15.5 4.88189C14.8287 4.88189 14.2795 5.4311 14.2795 6.10236V6.40748C14.0354 6.10236 13.8524 5.73622 13.8524 5.30906ZM12.2047 13.1811C14.5236 13.1201 16.8425 13.1811 19.1614 13.1811C20.748 13.1811 22.2736 13.7913 23.311 15.0118C23.9213 15.7441 24.2264 16.5374 24.3484 17.3307L19.8327 15.8051C18.7953 15.439 17.6358 15.5 16.5984 15.9272L13.9744 17.0866C13.3642 17.3307 12.6929 17.3307 12.1437 16.9646L8.54331 14.7067C9.64173 13.7913 10.8622 13.2421 12.2047 13.1811ZM7.44488 16.8425L10.9843 19.0394C12.2047 19.8327 13.7913 19.9547 15.0728 19.3445L17.6968 18.185C18.124 18.002 18.6732 17.9409 19.1004 18.124L24.4705 19.9547V25.874H7.26181C7.26181 23.7382 7.26181 21.6024 7.26181 19.4665C7.26181 18.6122 7.26181 17.6969 7.44488 16.8425ZM26.9724 31.6102H4.02756C3.1122 31.6102 2.44094 30.878 2.44094 30.0236C2.44094 29.1693 3.17323 28.437 4.02756 28.437H26.9724C27.8878 28.437 28.5591 29.1693 28.5591 30.0236C28.5591 30.878 27.8268 31.6102 26.9724 31.6102Z" fill="black"/>
</svg>
