<svg width="58" height="58" viewBox="0 0 58 58" fill="none" xmlns="http://www.w3.org/2000/svg">
<circle cx="29" cy="29" r="26.6613" stroke="#1D1D1B" stroke-width="4.67742"/>
<path d="M41.4242 16.2137C39.9429 14.7383 37.9732 13.8553 35.8862 13.731C33.7992 13.6067 31.7387 14.2497 30.0927 15.5388C28.4467 16.828 27.3288 18.6744 26.9494 20.7305C26.5701 22.7865 26.9554 24.9103 28.033 26.702L14.6688 40.1127C13.5455 41.3876 14.2801 42.6647 14.6739 43.0572C15.0652 43.4465 15.5951 43.6647 16.1472 43.6637C16.6992 43.6628 17.2283 43.4428 17.6183 43.0521L18.4324 42.2352L20.3941 44.1907C20.5967 44.3564 20.781 44.2803 20.8636 44.1899L23.0532 41.9927C23.0841 41.9619 23.1086 41.9253 23.1252 41.885C23.1419 41.8447 23.1505 41.8014 23.1504 41.7578C23.1503 41.7142 23.1416 41.671 23.1248 41.6307C23.108 41.5905 23.0834 41.5539 23.0524 41.5232L21.0906 39.5677L22.6359 38.017L24.5976 39.9726C24.6601 40.0346 24.7445 40.0693 24.8325 40.0691C24.9205 40.069 25.0049 40.034 25.0671 39.9718L27.2567 37.7746C27.3188 37.7122 27.3536 37.6277 27.3535 37.5397C27.3533 37.4516 27.3182 37.3673 27.2559 37.3051L25.2941 35.3502L30.9825 29.6413C32.6229 30.6204 34.5434 31.0233 36.439 30.7862C38.3346 30.549 40.0966 29.6853 41.4452 28.3322C43.0493 26.7223 43.9481 24.5412 43.9442 22.2686C43.9402 19.996 43.0338 17.818 41.4242 16.2137ZM38.5768 25.4744C37.9459 26.1068 37.1417 26.538 36.2658 26.7134C35.3899 26.8889 34.4817 26.8007 33.6559 26.4601C32.8301 26.1195 32.1238 25.5416 31.6263 24.7997C31.1288 24.0577 30.8625 23.185 30.8609 22.2917C30.8594 21.3984 31.1227 20.5247 31.6176 19.781C32.1125 19.0373 32.8168 18.457 33.6414 18.1135C34.466 17.77 35.3739 17.6787 36.2504 17.8511C37.1269 18.0235 37.9326 18.4519 38.5657 19.0821C39.4136 19.929 39.8909 21.0776 39.8929 22.276C39.895 23.4743 39.4217 24.6246 38.5768 25.4744Z" fill="black"/>
</svg>
