<svg width="58" height="58" viewBox="0 0 58 58" fill="none" xmlns="http://www.w3.org/2000/svg">
<circle cx="29" cy="29" r="26.6613" stroke="#1D1D1B" stroke-width="4.67742"/>
<path d="M28.9424 12.8633C22.6563 12.8635 17.543 17.9773 17.543 24.2637C17.543 26.4967 18.1884 28.6598 19.4102 30.5186L28.7461 45.0312L28.9424 45.3369L29.1396 45.0312L38.4756 30.5186L38.6973 30.166C39.7751 28.3887 40.3427 26.3571 40.3428 24.2637C40.3428 17.9772 35.2289 12.8633 28.9424 12.8633ZM28.9424 15.1914C33.9443 15.1914 38.0146 19.2617 38.0146 24.2637C38.0146 25.9329 37.5615 27.5512 36.7021 28.9658L36.5244 29.2461L36.5225 29.25L36.5166 29.2588H36.5176L28.9434 41.0312L21.3691 29.2588L21.3633 29.25L21.3613 29.2461C20.3869 27.7669 19.8712 26.0442 19.8711 24.2637C19.8711 19.2619 23.9409 15.1916 28.9424 15.1914Z" fill="#1D1D1B" stroke="#1D1D1B" stroke-width="0.467742"/>
<path d="M28.9404 18.4473C25.7328 18.4473 23.1233 21.0559 23.123 24.2637C23.123 27.4714 25.7327 30.0811 28.9404 30.0811C32.1482 30.0808 34.7568 27.4713 34.7568 24.2637C34.7566 21.056 32.1481 18.4475 28.9404 18.4473ZM28.9404 20.7754C30.8635 20.7756 32.4285 22.3407 32.4287 24.2637C32.4287 26.1866 30.8636 27.7517 28.9404 27.752C27.0173 27.752 25.4521 26.1868 25.4521 24.2637C25.4524 22.3405 27.0174 20.7754 28.9404 20.7754Z" fill="#1D1D1B" stroke="#1D1D1B" stroke-width="0.467742"/>
</svg>
