<svg width="58" height="58" viewBox="0 0 58 58" fill="none" xmlns="http://www.w3.org/2000/svg">
<circle cx="29" cy="29" r="26.6613" stroke="#1D1D1B" stroke-width="4.67742"/>
<path d="M41.2754 18H15.7246C14.2192 18 13 19.2268 13 20.7246V37.0723C13 38.579 14.2282 39.7969 15.7246 39.7969H41.2754C42.7682 39.7969 44 38.5841 44 37.0723V20.7246C44 19.2295 42.7856 18 41.2754 18ZM40.8938 19.8164C40.3372 20.3701 30.7574 29.8995 30.4266 30.2285C29.912 30.7431 29.2278 31.0265 28.5 31.0265C27.7722 31.0265 27.088 30.7431 26.5717 30.2268C26.3493 30.0055 16.8752 20.5814 16.1062 19.8164H40.8938ZM14.8164 36.7026V21.0955L22.6656 28.9033L14.8164 36.7026ZM16.1073 37.9805L23.9534 30.1843L25.289 31.5129C26.1467 32.3706 27.2871 32.8429 28.5 32.8429C29.7129 32.8429 30.8533 32.3706 31.7093 31.5145L33.0466 30.1843L40.8927 37.9805H16.1073ZM42.1836 36.7026L34.3344 28.9033L42.1836 21.0955V36.7026Z" fill="black"/>
</svg>
