<svg width="30" height="27" viewBox="0 0 30 27" fill="none" xmlns="http://www.w3.org/2000/svg">
<path d="M11.7908 6.97076C12.8812 6.61492 13.9604 6.43458 14.9996 6.43458C20.8942 6.43458 26.0826 12.1668 27.6462 14.0745C27.0866 14.7599 26.0626 15.9359 24.7117 17.1562C24.2875 17.5404 24.2543 18.1954 24.6378 18.6203C24.843 18.8463 25.1243 18.9617 25.4069 18.9617C25.6549 18.9617 25.9037 18.8732 26.102 18.6943C28.3635 16.6497 29.744 14.7613 29.802 14.6819C30.066 14.3191 30.066 13.8271 29.802 13.4637C29.5319 13.0933 23.0977 4.3617 14.9996 4.3617C13.7421 4.3617 12.4465 4.57659 11.1482 5.00015C10.6038 5.17772 10.3066 5.76296 10.4849 6.30675C10.6618 6.85192 11.2484 7.14972 11.7908 6.97076ZM1.71734 0.254643C1.28618 -0.120548 0.63115 -0.0763264 0.255268 0.355523C-0.121304 0.786681 -0.075701 1.44102 0.355457 1.81759L6.6342 7.28929C2.82011 9.89559 0.311236 13.3089 0.197919 13.4651C-0.0653366 13.8278 -0.0653366 14.3198 0.197919 14.6832C0.467393 15.0543 6.9016 23.7859 14.9996 23.7859C17.5009 23.7859 20.0892 22.9395 22.7004 21.2902L28.2819 26.1545C28.4782 26.3259 28.7207 26.4095 28.9618 26.4095C29.2513 26.4095 29.5388 26.2893 29.744 26.0537C30.1199 25.6225 30.075 24.9675 29.6431 24.5916L1.71734 0.254643ZM12.2558 12.1875L16.9074 16.2414C16.3636 16.6532 15.6961 16.8895 14.9996 16.8895C13.257 16.8895 11.8385 15.4709 11.8385 13.7283C11.8385 13.1756 11.9926 12.6539 12.2558 12.1875ZM14.9996 21.7131C9.10507 21.7131 3.91735 15.9816 2.35371 14.0731C3.26992 12.9531 5.44022 10.5251 8.26002 8.70576L10.6618 10.7994C10.08 11.6561 9.76493 12.6643 9.76493 13.7283C9.76493 16.6145 12.1128 18.9623 14.9989 18.9623C16.2973 18.9623 17.5375 18.4718 18.489 17.6205L21.0642 19.8647C18.9761 21.0884 16.9398 21.7131 14.9996 21.7131Z" fill="black"/>
</svg>
