<svg width="58" height="58" viewBox="0 0 58 58" fill="none" xmlns="http://www.w3.org/2000/svg">
<circle cx="29" cy="29" r="26.6613" stroke="#1D1D1B" stroke-width="4.67742"/>
<path d="M39.7353 22.3627H37.1738V16.518C37.1738 12.3725 33.7302 9 29.4974 9C25.2646 9 21.8209 12.3725 21.8209 16.518V22.3627H19.2647C16.9131 22.3627 15 24.2759 15 26.6275V41.1275C15 43.479 16.9131 45.3922 19.2647 45.3922H39.7353C42.0869 45.3922 44 43.479 44 41.1275V26.6275C44 24.2759 42.0869 22.3627 39.7353 22.3627ZM24.664 16.518C24.664 13.9402 26.8323 11.8431 29.4974 11.8431C32.1625 11.8431 34.3307 13.9402 34.3307 16.518V22.3627H24.664V16.518ZM41.1569 41.1275C41.1569 41.9113 40.5191 42.549 39.7353 42.549H19.2647C18.4809 42.549 17.8431 41.9113 17.8431 41.1275V26.6275C17.8431 25.8436 18.4809 25.2059 19.2647 25.2059H39.7353C40.5191 25.2059 41.1569 25.8436 41.1569 26.6275V41.1275Z" fill="black"/>
<path d="M29.4971 29.3281C28.0446 29.3281 26.8672 30.5055 26.8672 31.958C26.8672 32.8855 27.3477 33.7002 28.0729 34.1684V37.2889C28.0729 38.074 28.7093 38.7105 29.4945 38.7105C30.2795 38.7105 30.916 38.074 30.916 37.2889V34.1718C31.6442 33.7041 32.127 32.8877 32.127 31.958C32.127 30.5055 30.9496 29.3281 29.4971 29.3281Z" fill="black"/>
</svg>
