<svg width="58" height="58" viewBox="0 0 58 58" fill="none" xmlns="http://www.w3.org/2000/svg">
<circle cx="29" cy="29" r="26.6613" stroke="#1D1D1B" stroke-width="4.67742"/>
<path d="M44.8553 18H13.8818C13.3829 18.0006 12.9045 18.1991 12.5517 18.552C12.1989 18.9048 12.0005 19.3832 12 19.8822V39.1178C12.0005 39.6168 12.1989 40.0952 12.5517 40.448C12.9045 40.8009 13.3829 40.9994 13.8818 41H44.8553C45.3543 40.9993 45.8326 40.8008 46.1853 40.4479C46.5381 40.0951 46.7365 39.6168 46.7372 39.1178V19.8822C46.7365 19.3832 46.5381 18.9049 46.1853 18.5521C45.8326 18.1992 45.3543 18.0007 44.8553 18ZM45.5891 39.1178C45.5889 39.3124 45.5116 39.499 45.374 39.6366C45.2364 39.7742 45.0499 39.8517 44.8553 39.8519H13.8818C13.6873 39.8517 13.5007 39.7742 13.3632 39.6366C13.2256 39.499 13.1482 39.3124 13.1481 39.1178V19.8822C13.1482 19.6876 13.2256 19.501 13.3632 19.3634C13.5007 19.2258 13.6873 19.1483 13.8818 19.1481H44.8553C45.0499 19.1483 45.2364 19.2258 45.374 19.3634C45.5116 19.501 45.5889 19.6876 45.5891 19.8822V39.1178Z" fill="black"/>
<path d="M28.4788 22.0449H16.3631C16.2109 22.0449 16.0648 22.1054 15.9572 22.2131C15.8495 22.3207 15.7891 22.4667 15.7891 22.619V36.3813C15.7891 36.5335 15.8495 36.6796 15.9572 36.7872C16.0648 36.8949 16.2109 36.9553 16.3631 36.9553H28.4788C28.631 36.9552 28.777 36.8947 28.8846 36.7871C28.9922 36.6795 29.0527 36.5335 29.0528 36.3813V22.619C29.0527 22.4667 28.9922 22.3208 28.8846 22.2131C28.777 22.1055 28.631 22.045 28.4788 22.0449ZM27.9048 35.8073H16.9384V23.193H27.9048V35.8073Z" fill="black"/>
<path d="M42.1612 25.6465H33.8787C33.7265 25.6465 33.5805 25.707 33.4728 25.8146C33.3652 25.9223 33.3047 26.0683 33.3047 26.2205C33.3047 26.3728 33.3652 26.5188 33.4728 26.6264C33.5805 26.7341 33.7265 26.7945 33.8787 26.7945H42.1612C42.3134 26.7945 42.4594 26.7341 42.5671 26.6264C42.6747 26.5188 42.7352 26.3728 42.7352 26.2205C42.7352 26.0683 42.6747 25.9223 42.5671 25.8146C42.4594 25.707 42.3134 25.6465 42.1612 25.6465Z" fill="black"/>
<path d="M42.1612 28.9258H33.8787C33.7265 28.9258 33.5805 28.9863 33.4728 29.0939C33.3652 29.2016 33.3047 29.3476 33.3047 29.4998C33.3047 29.6521 33.3652 29.7981 33.4728 29.9057C33.5805 30.0134 33.7265 30.0738 33.8787 30.0738H42.1612C42.3134 30.0738 42.4594 30.0134 42.5671 29.9057C42.6747 29.7981 42.7352 29.6521 42.7352 29.4998C42.7352 29.3476 42.6747 29.2016 42.5671 29.0939C42.4594 28.9863 42.3134 28.9258 42.1612 28.9258Z" fill="black"/>
<path d="M42.1612 32.2061H33.8787C33.7265 32.2061 33.5805 32.2665 33.4728 32.3742C33.3652 32.4818 33.3047 32.6278 33.3047 32.7801C33.3047 32.9323 33.3652 33.0783 33.4728 33.186C33.5805 33.2936 33.7265 33.3541 33.8787 33.3541H42.1612C42.3134 33.3541 42.4594 33.2936 42.5671 33.186C42.6747 33.0783 42.7352 32.9323 42.7352 32.7801C42.7352 32.6278 42.6747 32.4818 42.5671 32.3742C42.4594 32.2665 42.3134 32.2061 42.1612 32.2061Z" fill="black"/>
<path d="M18.3624 34.6667H26.475C26.6272 34.6667 26.7732 34.6062 26.8809 34.4985C26.9885 34.3909 27.049 34.2449 27.049 34.0926C27.0477 33.206 26.792 32.3384 26.3123 31.5928C25.8327 30.8472 25.1491 30.2549 24.3429 29.8861C24.7944 29.494 25.1154 28.9733 25.2629 28.3937C25.4103 27.8141 25.3772 27.2033 25.1679 26.6431C24.9586 26.0829 24.5832 25.6 24.0919 25.259C23.6005 24.9181 23.0168 24.7354 22.4187 24.7354C21.8207 24.7354 21.2369 24.9181 20.7456 25.259C20.2542 25.6 19.8788 26.0829 19.6695 26.6431C19.4602 27.2033 19.4271 27.8141 19.5745 28.3937C19.722 28.9733 20.043 29.494 20.4946 29.8861C19.6884 30.255 19.005 30.8473 18.5255 31.593C18.0459 32.3386 17.7903 33.2061 17.7891 34.0926C17.789 34.168 17.8038 34.2426 17.8326 34.3122C17.8614 34.3818 17.9036 34.4451 17.9569 34.4984C18.0101 34.5517 18.0733 34.594 18.1429 34.6229C18.2125 34.6517 18.2871 34.6666 18.3624 34.6667ZM20.632 27.6759C20.6319 27.3225 20.7367 26.9771 20.933 26.6832C21.1292 26.3893 21.4083 26.1603 21.7347 26.025C22.0612 25.8897 22.4205 25.8543 22.7671 25.9232C23.1137 25.9921 23.4321 26.1622 23.682 26.4121C23.9319 26.6619 24.1021 26.9803 24.1711 27.3269C24.24 27.6735 24.2047 28.0328 24.0695 28.3593C23.9342 28.6858 23.7052 28.9648 23.4114 29.1612C23.1176 29.3575 22.7721 29.4623 22.4187 29.4623C21.9451 29.4618 21.491 29.2734 21.156 28.9385C20.8211 28.6036 20.6326 28.1496 20.632 27.6759ZM22.4187 30.6104C23.2425 30.6114 24.0394 30.904 24.6681 31.4363C25.2968 31.9686 25.7168 32.7062 25.8537 33.5186H18.9837C19.1206 32.7062 19.5406 31.9686 20.1693 31.4363C20.7981 30.904 21.5949 30.6114 22.4187 30.6104Z" fill="black"/>
</svg>
