<svg width="58" height="58" viewBox="0 0 58 58" fill="none" xmlns="http://www.w3.org/2000/svg">
<circle cx="29" cy="29" r="26.6613" stroke="#1D1D1B" stroke-width="4.67742"/>
<path d="M44.631 26.5218H37.0026C35.9475 26.5218 35.0938 25.668 35.0938 24.6129V20.3718C35.0938 19.3168 35.9475 18.463 37.0026 18.463H38.5366C39.078 18.463 39.5223 18.9003 39.5223 19.4487C39.5223 19.997 39.085 20.4343 38.5366 20.4343H37.0581V24.5574H44.5685V20.4274H43.09C42.5486 20.4274 42.1044 19.9901 42.1044 19.4417C42.1044 18.8934 42.5417 18.4561 43.09 18.4561H44.6241C45.6791 18.4561 46.5329 19.3098 46.5329 20.3649V24.606C46.5398 25.668 45.6861 26.5218 44.631 26.5218Z" fill="black"/>
<path d="M43.0978 20.4281C42.6396 20.4281 42.2301 20.1088 42.1329 19.6368L41.89 18.4429H39.7382L39.4953 19.6368C39.3911 20.1713 38.8706 20.5114 38.3361 20.4073C37.8016 20.3031 37.4615 19.7825 37.5656 19.2481L37.8155 18.0125C37.996 17.1241 38.7803 16.4785 39.6896 16.4785H41.9386C42.8479 16.4785 43.6322 17.1241 43.8127 18.0125L44.0626 19.2481C44.1667 19.7825 43.8266 20.2962 43.2921 20.4073C43.2227 20.4211 43.1602 20.4281 43.0978 20.4281Z" fill="black"/>
<path d="M40.8135 24.5294C39.46 24.5294 38.3633 23.4327 38.3633 22.0792C38.3633 20.7256 39.46 19.6289 40.8135 19.6289C42.1671 19.6289 43.2638 20.7256 43.2638 22.0792C43.2638 23.4327 42.1671 24.5294 40.8135 24.5294ZM40.8135 21.6002C40.5498 21.6002 40.3346 21.8154 40.3346 22.0792C40.3346 22.3429 40.5498 22.5581 40.8135 22.5581C41.0773 22.5581 41.2925 22.3429 41.2925 22.0792C41.2994 21.8154 41.0842 21.6002 40.8135 21.6002Z" fill="black"/>
<path d="M25.5733 31.2628C22.5747 31.2628 19.8398 29.7427 18.2503 27.2022C17.3965 25.8348 16.9453 24.2522 16.9453 22.6349C16.9453 20.3235 17.8477 18.1439 19.4927 16.5127C21.1239 14.8954 23.2827 14 25.5802 14H25.6288C27.9263 14.0139 30.0851 14.9232 31.7093 16.5683C33.3336 18.2133 34.222 20.3859 34.2082 22.6835C34.1943 24.28 33.7431 25.8417 32.9032 27.1953C31.3067 29.7427 28.5649 31.2628 25.5733 31.2628ZM25.5733 15.9713C23.7963 15.9713 22.1304 16.6585 20.874 17.9079C19.6038 19.1643 18.9097 20.8441 18.9097 22.6279C18.9097 23.8774 19.2567 25.099 19.9162 26.1541C21.1448 28.1185 23.2549 29.2915 25.5733 29.2915C27.8847 29.2915 30.0018 28.1185 31.2304 26.1541C31.8828 25.1129 32.2299 23.9121 32.2368 22.6765C32.2507 20.9065 31.5635 19.2267 30.3072 17.9565C29.0508 16.6863 27.3849 15.9783 25.6149 15.9713C25.5941 15.9713 25.5802 15.9713 25.5733 15.9713Z" fill="black"/>
<path d="M25.5767 43.9993C20.697 43.9993 16.0394 42.5 12.0899 39.661C11.2083 39.0293 10.8057 37.891 11.0903 36.8359C11.4513 35.5032 11.9927 34.233 12.7076 33.046C14.9219 29.3602 19.4059 27.6943 23.5984 28.9923C24.237 29.1867 24.9034 29.2908 25.5767 29.2908C26.25 29.2908 26.9163 29.1936 27.5549 28.9923C31.7474 27.6943 36.2315 29.3533 38.4457 33.046C39.1607 34.233 39.7021 35.5032 40.063 36.8359C40.3476 37.891 39.945 39.0293 39.0635 39.661C35.1139 42.5 30.4494 43.9993 25.5767 43.9993ZM20.7248 30.5263C18.1635 30.5263 15.7479 31.8174 14.3944 34.0594C13.7766 35.0867 13.3046 36.1973 12.9922 37.3496C12.9159 37.6203 13.02 37.9049 13.2421 38.0645C16.8516 40.6605 21.1204 42.028 25.5767 42.028C30.0399 42.028 34.3018 40.6536 37.9113 38.0645C38.1334 37.9049 38.2306 37.6203 38.1611 37.3496C37.8488 36.1973 37.3768 35.0867 36.759 34.0594C35.0098 31.151 31.4629 29.8392 28.138 30.8734C27.312 31.1302 26.4513 31.2621 25.5767 31.2621C24.7021 31.2621 23.8414 31.1302 23.0154 30.8734C22.2518 30.6374 21.4814 30.5263 20.7248 30.5263Z" fill="black"/>
</svg>
