<svg width="58" height="58" viewBox="0 0 58 58" fill="none" xmlns="http://www.w3.org/2000/svg">
<circle cx="29" cy="29" r="26.6613" stroke="#1D1D1B" stroke-width="4.67742"/>
<path d="M41.5064 34.2973C40.612 33.5974 39.1758 32.6625 38.5812 32.3567C37.3157 31.6985 35.5537 31.7875 34.3912 32.5692L34.3779 32.5783C33.641 33.0918 32.9582 33.6787 32.3398 34.33L32.3234 34.347C32.2027 34.4752 32.0404 34.5562 31.8654 34.5755C31.6904 34.5948 31.5142 34.5511 31.3685 34.4523C30.0313 33.5412 28.7837 32.5052 27.6423 31.3583C26.4954 30.2172 25.4596 28.9697 24.5488 27.6326C24.45 27.4873 24.4062 27.3116 24.4253 27.1369C24.4444 26.9622 24.5251 26.8001 24.653 26.6796L24.6711 26.6614C25.3225 26.0431 25.9094 25.3602 26.4228 24.6233L26.4319 24.61C27.2136 23.4474 27.3026 21.6854 26.6457 20.423C26.3369 19.826 25.4038 18.3897 24.7038 17.4954C24.0178 16.5872 22.8825 15.3326 22.3987 14.8996C21.3264 13.9333 19.5795 13.7153 18.3346 14.3928L18.3195 14.4013C17.5489 14.8403 16.8264 15.3588 16.1639 15.9484L16.0961 16.0089C14.807 17.1267 14.0846 18.8178 14.0071 20.9025C13.9217 23.1968 14.6054 25.8936 15.9883 28.7013C17.404 31.5787 19.4929 34.4384 22.0293 36.9706C24.5658 39.5028 27.4225 41.5972 30.2998 43.0129C32.9519 44.3177 35.5047 45.0013 37.7135 45.0013C37.8431 45.0013 37.9715 44.9989 38.0986 44.994C40.1834 44.9165 41.8745 44.1948 42.991 42.9051L43.0516 42.8373C43.6412 42.1748 44.1597 41.4523 44.5986 40.6817L44.6071 40.6666C45.2841 39.4229 45.0673 37.6772 44.1027 36.6049C43.6692 36.1187 42.4152 34.9834 41.5064 34.2973ZM42.5902 39.5597C42.2337 40.1855 41.8115 40.7715 41.3308 41.3078L41.2587 41.3877C40.5606 42.1991 39.4689 42.6374 38.0133 42.6919C36.1271 42.761 33.7475 42.144 31.3171 40.9475C28.6644 39.6427 26.0165 37.7051 23.6581 35.343C21.2997 32.981 19.3585 30.338 18.0567 27.6841C16.8572 25.2536 16.2402 22.8752 16.3068 20.9879C16.3613 19.5347 16.7997 18.4406 17.611 17.7424L17.6934 17.6704C18.2306 17.1897 18.8174 16.7675 19.4439 16.411C19.8453 16.1972 20.5047 16.2899 20.8632 16.6114C21.2216 16.9329 22.2437 18.0567 22.8722 18.8893L22.8861 18.9062C23.5316 19.7297 24.3714 21.0351 24.6027 21.4826C24.8709 21.9979 24.8346 22.8547 24.5258 23.3197C24.1025 23.9284 23.6173 24.4917 23.0781 25.0005L23.0696 25.009C22.545 25.5045 22.2141 26.1708 22.1365 26.8882C22.0588 27.6056 22.2393 28.3272 22.6457 28.9235C23.6389 30.3813 24.7682 31.7415 26.0184 32.9858C27.2626 34.2361 28.6228 35.3654 30.0806 36.3584C30.6773 36.7645 31.3991 36.9445 32.1166 36.8663C32.834 36.7881 33.5001 36.4566 33.9952 35.9316L34.0049 35.9219C34.5135 35.3832 35.0764 34.8985 35.6845 34.4753C36.1495 34.1665 37.0063 34.1302 37.5246 34.4003C37.9691 34.6298 39.2745 35.4702 40.098 36.1156L40.1149 36.129C40.9499 36.7581 42.0725 37.7826 42.3928 38.1404V38.1434C42.7125 38.4989 42.8039 39.1583 42.5902 39.5597Z" fill="black"/>
</svg>
