<svg width="58" height="58" viewBox="0 0 58 58" fill="none" xmlns="http://www.w3.org/2000/svg">
<circle cx="29" cy="29" r="26.6613" stroke="#1D1D1B" stroke-width="4.67742"/>
<path fill-rule="evenodd" clip-rule="evenodd" d="M38.3754 25.3447C41.7102 25.9907 44.2305 28.9289 44.2305 32.4507C44.2305 36.4457 40.9877 39.6885 36.9927 39.6885C32.9977 39.6885 29.755 36.4457 29.755 32.4507C29.755 27.1269 31.5485 23.8204 33.6536 21.7535C36.8766 18.5886 40.9126 18.3138 40.9126 18.3138C41.3235 18.2841 41.7131 18.4951 41.9142 18.8536C42.1168 19.2106 42.0927 19.654 41.8547 19.9883C41.8547 19.9883 39.9366 22.6885 38.7409 24.686C38.6162 24.8956 38.4901 25.1266 38.3754 25.3447ZM36.9927 37.5635C39.8147 37.5635 42.1055 35.2727 42.1055 32.4507C42.1055 29.6287 39.8147 27.338 36.9927 27.338C36.5918 27.338 36.3113 27.1736 36.1073 26.9385C35.9359 26.7401 35.7744 26.4228 35.8296 25.9567C35.8778 25.553 36.2915 24.6406 36.9176 23.5937C37.3936 22.8004 37.9787 21.8994 38.5213 21.0905C37.4744 21.507 36.2504 22.1813 35.1426 23.2707C33.3406 25.0387 31.88 27.8947 31.88 32.4507C31.88 35.2727 34.1707 37.5635 36.9927 37.5635Z" fill="black"/>
<path fill-rule="evenodd" clip-rule="evenodd" d="M22.391 25.3447C25.7258 25.9907 28.2461 28.9289 28.2461 32.4507C28.2461 36.4457 25.0033 39.6885 21.0083 39.6885C17.0133 39.6885 13.7706 36.4457 13.7706 32.4507C13.7706 27.1269 15.5641 23.8204 17.6693 21.7535C20.8922 18.5886 24.9283 18.3138 24.9283 18.3138C25.3391 18.2841 25.7287 18.4951 25.9298 18.8536C26.131 19.2106 26.1083 19.654 25.8703 19.9883C25.8703 19.9883 23.9522 22.6885 22.7565 24.686C22.6318 24.8956 22.5058 25.1266 22.391 25.3447ZM21.0083 37.5635C23.8303 37.5635 26.1211 35.2727 26.1211 32.4507C26.1211 29.6287 23.8303 27.338 21.0083 27.338C20.6074 27.338 20.3269 27.1736 20.1229 26.9385C19.9515 26.7401 19.79 26.4228 19.8453 25.9567C19.8934 25.553 20.3071 24.6406 20.9333 23.5937C21.4093 22.8004 21.9943 21.8994 22.5369 21.0905C21.49 21.507 20.266 22.1813 19.1582 23.2707C17.3562 25.0387 15.8956 27.8947 15.8956 32.4507C15.8956 35.2727 18.1863 37.5635 21.0083 37.5635Z" fill="black"/>
</svg>
