<svg width="58" height="58" viewBox="0 0 58 58" fill="none" xmlns="http://www.w3.org/2000/svg">
<circle cx="29" cy="29" r="26.6613" stroke="#1D1D1B" stroke-width="4.67742"/>
<path d="M33.2479 47.3266C32.6647 47.5365 32.044 47.6221 31.4257 47.5779L25.8336 47.5779C25.0015 47.5745 24.2043 47.2424 23.6159 46.654C23.0275 46.0656 22.6954 45.2684 22.692 44.4363L22.6449 29.0581L22.7548 13.617C22.7476 13.2024 22.8238 12.7906 22.9791 12.4062C23.1344 12.0217 23.3656 11.6725 23.6588 11.3793C23.952 11.0861 24.3012 10.855 24.6857 10.6997C25.0701 10.5444 25.4819 10.4681 25.8965 10.4754L32.1797 10.4754C32.5943 10.4681 33.0061 10.5444 33.3905 10.6997C33.775 10.855 34.1242 11.0861 34.4174 11.3793C34.7106 11.6725 34.9417 12.0217 35.097 12.4062C35.2523 12.7906 35.3286 13.2024 35.3213 13.617L35.3213 44.4991C35.2971 45.1235 35.0868 45.7263 34.7173 46.2301C34.3478 46.734 33.8361 47.1158 33.2479 47.3266ZM32.9023 44.342L32.8709 13.617C32.8646 13.3898 32.7716 13.1737 32.6109 13.013C32.4502 12.8523 32.2341 12.7593 32.0069 12.7531L25.7237 12.7531C25.5987 12.7486 25.4742 12.77 25.3578 12.8158C25.2415 12.8616 25.1358 12.9308 25.0474 13.0193C24.959 13.1077 24.8897 13.2133 24.8439 13.3297C24.7981 13.446 24.7768 13.5706 24.7812 13.6955L24.7812 16.2403L27.9228 16.2403C28.2186 16.2403 28.5023 16.3578 28.7114 16.5669C28.9206 16.7761 29.0381 17.0597 29.0381 17.3555C29.0381 17.6513 28.9206 17.935 28.7114 18.1441C28.5023 18.3533 28.2186 18.4708 27.9228 18.4708L24.7812 18.4708L24.9697 22.1151L26.8547 22.1151C27.1504 22.1151 27.4341 22.2326 27.6433 22.4417C27.8524 22.6509 27.9699 22.9346 27.9699 23.2304C27.9699 23.5261 27.8524 23.8098 27.6433 24.019C27.4341 24.2281 27.1504 24.3456 26.8547 24.3456L24.9697 24.3456L24.9697 27.9271H28.1113C28.4071 27.9271 28.6908 28.0446 28.8999 28.2537C29.1091 28.4629 29.2266 28.7466 29.2266 29.0423C29.2266 29.3381 29.1091 29.6218 28.8999 29.831C28.6908 30.0401 28.4071 30.1576 28.1113 30.1576H24.9697V33.7077L26.8547 33.7077C27.0011 33.7077 27.1461 33.7365 27.2815 33.7925C27.4168 33.8486 27.5397 33.9307 27.6433 34.0343C27.7468 34.1379 27.829 34.2608 27.885 34.3961C27.9411 34.5314 27.9699 34.6765 27.9699 34.8229C27.9699 34.9694 27.9411 35.1144 27.885 35.2497C27.829 35.385 27.7468 35.508 27.6433 35.6115C27.5397 35.7151 27.4168 35.7973 27.2815 35.8533C27.1461 35.9094 27.0011 35.9382 26.8547 35.9382L24.9697 35.9382L24.9697 39.5196L28.1113 39.5196C28.2578 39.5196 28.4028 39.5485 28.5381 39.6045C28.6734 39.6606 28.7964 39.7427 28.8999 39.8463C29.0035 39.9499 29.0856 40.0728 29.1417 40.2081C29.1977 40.3434 29.2266 40.4885 29.2266 40.6349C29.2266 40.7814 29.1977 40.9264 29.1417 41.0617C29.0856 41.197 29.0035 41.32 28.8999 41.4235C28.7964 41.5271 28.6734 41.6093 28.5381 41.6653C28.4028 41.7213 28.2578 41.7502 28.1113 41.7502L24.9697 41.7502L24.9697 44.5148C24.9759 44.742 25.0689 44.9581 25.2296 45.1188C25.3903 45.2795 25.6065 45.3725 25.8336 45.3788L32.1169 45.3788C32.2353 45.3643 32.3496 45.3261 32.453 45.2664C32.5564 45.2068 32.6466 45.1269 32.7185 45.0317C32.7903 44.9364 32.8422 44.8276 32.8711 44.7118C32.9 44.596 32.9052 44.4756 32.8866 44.3577L32.9023 44.342Z" fill="#1D1D1B"/>
</svg>
