<svg width="20" height="19" viewBox="0 0 20 19" fill="none" xmlns="http://www.w3.org/2000/svg">
<path d="M19.2278 6.96553C19.1545 6.74416 19.023 6.54658 18.847 6.39351C18.6711 6.24045 18.4572 6.13752 18.2278 6.09553L13.1078 5.35553L10.7778 0.705534C10.6699 0.493248 10.5054 0.314968 10.3024 0.190441C10.0995 0.0659139 9.86597 0 9.62784 0C9.38971 0 9.15623 0.0659139 8.95325 0.190441C8.75028 0.314968 8.58573 0.493248 8.47784 0.705534L6.18784 5.35553L1.06784 6.09553C0.838096 6.13415 0.623248 6.23473 0.44645 6.38644C0.269653 6.53815 0.137612 6.73524 0.0645596 6.95645C-0.00849313 7.17767 -0.0197873 7.41463 0.0318943 7.64179C0.0835759 7.86895 0.196273 8.0777 0.35784 8.24553L4.05784 11.8555L3.18784 16.9555C3.1373 17.1969 3.15869 17.4477 3.24934 17.677C3.33999 17.9063 3.49594 18.104 3.69784 18.2455C3.91352 18.4091 4.17714 18.497 4.44784 18.4955C4.65699 18.4945 4.86282 18.4431 5.04784 18.3455L9.62784 15.9355L14.2078 18.3455C14.4194 18.4575 14.6581 18.5079 14.8968 18.4911C15.1356 18.4742 15.3648 18.3907 15.5585 18.2502C15.7522 18.1096 15.9026 17.9175 15.9927 17.6957C16.0827 17.4739 16.1087 17.2314 16.0678 16.9955L15.1978 11.8955L18.8978 8.24553C19.0623 8.08118 19.1796 7.87574 19.2377 7.65061C19.2957 7.42548 19.2923 7.18891 19.2278 6.96553Z" fill="#FBC02D"/>
</svg>
