<svg width="30" height="20" viewBox="0 0 30 20" fill="none" xmlns="http://www.w3.org/2000/svg">
<path d="M29.802 9.10352C29.5319 8.73178 23.0976 0 14.9994 0C6.90123 0 0.466923 8.73109 0.197445 9.10283C-0.0658149 9.46559 -0.0658149 9.95756 0.197445 10.321C0.466923 10.6928 6.90123 19.4245 14.9994 19.4245C23.0976 19.4245 29.5319 10.6928 29.802 10.3217C30.066 9.95825 30.066 9.46628 29.802 9.10352ZM14.9994 17.3516C9.10542 17.3516 3.91762 11.6207 2.35396 9.71227C3.91762 7.80381 9.10542 2.07291 14.9994 2.07291C20.8934 2.07291 26.0812 7.80381 27.6455 9.71227C26.0812 11.6207 20.8934 17.3516 14.9994 17.3516ZM17.916 6.17589C17.4406 6.49373 17.3128 7.13771 17.6306 7.61379C17.9775 8.13271 18.1613 8.73938 18.1613 9.36747C18.1613 11.1101 16.7427 12.5287 15.0001 12.5287C13.2575 12.5287 11.8389 11.1101 11.8389 9.36747C11.8389 7.62485 13.2568 6.20629 15.0001 6.20629C15.5729 6.20629 16.0365 5.74265 16.0365 5.16983C16.0365 4.59702 15.5729 4.13338 15.0001 4.13338C12.1139 4.13338 9.76599 6.48129 9.76599 9.36747C9.76599 12.2537 12.1139 14.6016 15.0001 14.6016C17.8863 14.6016 20.2342 12.2537 20.2342 9.36747C20.2342 8.32826 19.9302 7.32359 19.3546 6.46195C19.0353 5.98449 18.3914 5.85804 17.916 6.17589Z" fill="black"/>
</svg>
