<svg width="58" height="58" viewBox="0 0 58 58" fill="none" xmlns="http://www.w3.org/2000/svg">
<circle cx="29" cy="29" r="26.6613" stroke="#1D1D1B" stroke-width="4.67742"/>
<mask id="mask0_587_6923" style="mask-type:luminance" maskUnits="userSpaceOnUse" x="12" y="11" width="35" height="35">
<path d="M12 11H46.667V45.667H12V11Z" fill="white"/>
</mask>
<g mask="url(#mask0_587_6923)">
<path d="M45.6513 20.2058V42.5498H13.0156V20.2058" stroke="black" stroke-width="2.03127" stroke-miterlimit="10" stroke-linecap="round" stroke-linejoin="round"/>
<path d="M27.3022 30.3627H20.9031C19.7948 30.3627 13.0156 30.4966 13.0156 20.2063C13.0156 19.0845 13.9251 18.1751 15.0469 18.1751H43.6201C44.7419 18.1751 45.6513 19.0845 45.6513 20.2063C45.6513 30.6265 38.8291 30.3627 37.7639 30.3627H31.3648" stroke="black" stroke-width="2.03127" stroke-miterlimit="10" stroke-linecap="round" stroke-linejoin="round"/>
<path d="M31.3633 34.4248H27.3008V28.331H31.3633V34.4248Z" stroke="black" stroke-width="2.03127" stroke-miterlimit="10" stroke-linecap="round" stroke-linejoin="round"/>
<path d="M23.2383 18.1748V16.1435C23.2383 15.0217 24.1477 14.1123 25.2696 14.1123H33.3946C34.5164 14.1123 35.4259 15.0217 35.4259 16.1435V18.1748" stroke="black" stroke-width="2.03127" stroke-miterlimit="10" stroke-linecap="round" stroke-linejoin="round"/>
</g>
</svg>
