<svg width="58" height="58" viewBox="0 0 58 58" fill="none" xmlns="http://www.w3.org/2000/svg">
<circle cx="29" cy="29" r="26.6613" stroke="#1D1D1B" stroke-width="4.67742"/>
<path d="M18.6839 23.4431C18.5066 23.4431 18.3218 23.384 18.174 23.2658C17.4647 22.719 16.6149 22.4308 15.7135 22.4308C15.2479 22.4308 14.8711 22.054 14.8711 21.5885C14.8711 21.1229 15.2479 20.7461 15.7135 20.7461C16.9844 20.7461 18.1888 21.1525 19.2011 21.9357C19.5706 22.2165 19.6371 22.7486 19.3563 23.1106C19.1864 23.3249 18.9351 23.4431 18.6839 23.4431Z" fill="black"/>
<path d="M32.2931 17.9532C31.968 17.9532 31.6576 17.7611 31.5172 17.4434C30.298 14.5542 27.4754 12.6847 24.3424 12.6847C23.8768 12.6847 23.5 12.3079 23.5 11.8424C23.5 11.3768 23.8768 11 24.3424 11C28.1552 11 31.5764 13.2685 33.069 16.7857C33.2463 17.2143 33.0468 17.7094 32.6256 17.8867C32.5074 17.931 32.3966 17.9532 32.2931 17.9532Z" fill="black"/>
<path d="M43.3547 32.1773H40.8867C40.4212 32.1773 40.0443 31.8005 40.0443 31.335C40.0443 30.8695 40.4212 30.4926 40.8867 30.4926H43.3547C44.8916 30.4926 46.1404 29.2586 46.1552 27.7438V27.7069C46.1552 24.7291 43.7315 22.3054 40.7537 22.3054C40.5985 22.3054 40.4433 22.3128 40.266 22.3276C40.0074 22.3498 39.7488 22.2537 39.5714 22.0616C39.3941 21.8695 39.3202 21.6034 39.3645 21.3448C39.6897 19.4975 38.9803 17.6207 37.5246 16.4458C35.8695 15.1158 33.5197 14.9458 31.6872 16.0246C31.3177 16.2463 30.8448 16.1502 30.5862 15.803C30.4606 15.633 30.3276 15.4778 30.202 15.33C30.1946 15.3227 30.1946 15.3227 30.1872 15.3153C28.9015 13.7783 27.0246 12.8325 25.0369 12.7069C25.0296 12.7069 25.0222 12.7069 25.0148 12.7069C24.7857 12.6847 24.564 12.6773 24.3424 12.6773C20.0493 12.6847 16.5542 16.1798 16.5542 20.4729C16.5542 20.8128 16.5764 21.1527 16.6207 21.4852C16.6502 21.7291 16.5764 21.9729 16.4138 22.1502C16.2512 22.335 16.0222 22.431 15.7709 22.431H15.7118C13.4877 22.431 11.6773 24.2414 11.6773 26.4655C11.6773 28.2463 12.8153 29.7906 14.5148 30.3153C14.5296 30.3227 14.5369 30.3227 14.5517 30.33C14.8621 30.4409 15.1798 30.5 15.5123 30.5H16.9532C17.4187 30.5 17.7956 30.8768 17.7956 31.3424C17.7956 31.8079 17.4187 32.1847 16.9532 32.1847H15.5123C14.9951 32.1847 14.4852 32.0961 13.9975 31.9261C11.6034 31.1576 10 28.9704 10 26.4581C10 23.5911 12.1207 21.2118 14.8768 20.8054C14.8695 20.6946 14.8695 20.5764 14.8695 20.4655C14.8695 15.2414 19.1182 11 24.335 11C24.601 11 24.867 11.0148 25.1404 11.0369C27.5788 11.1921 29.8842 12.3522 31.4581 14.2365C31.4581 14.2438 31.4655 14.2438 31.4655 14.2512C33.7783 13.202 36.5493 13.5271 38.5591 15.1453C40.2291 16.4901 41.1601 18.5296 41.1084 20.6429C44.8473 20.835 47.8251 23.9384 47.8251 27.7217V27.766C47.8177 30.197 45.8079 32.1773 43.3547 32.1773Z" fill="black"/>
<path d="M38.9583 25.0472C38.7735 25.0472 38.5888 24.988 38.4336 24.8624C38.0716 24.5743 38.0125 24.0422 38.308 23.6802C40.0814 21.4708 39.7268 18.227 37.5174 16.4536C37.1553 16.1654 37.0962 15.6334 37.3918 15.2713C37.68 14.9092 38.212 14.8501 38.574 15.1457C41.5075 17.5028 41.9731 21.8033 39.6159 24.7368C39.446 24.9363 39.2021 25.0472 38.9583 25.0472Z" fill="black"/>
<path d="M28.916 46.9995C28.8052 46.9995 28.6943 46.9774 28.5909 46.933L27.1204 46.3123C22.4727 44.3468 19.4727 39.8247 19.4727 34.7852V27.4626C19.4727 27.0118 19.8273 26.6424 20.2781 26.6202C23.2264 26.5094 26.0342 25.534 28.4135 23.7828C28.7091 23.5685 29.1155 23.5685 29.4111 23.7828C31.783 25.5266 34.5983 26.5094 37.5465 26.6202C37.9973 26.635 38.352 27.0045 38.352 27.4626V34.7852C38.352 39.8247 35.352 44.3542 30.7042 46.3123L29.2337 46.933C29.1377 46.9774 29.0268 46.9995 28.916 46.9995ZM21.1574 28.2458V34.7779C21.1574 39.1449 23.7584 43.0611 27.7781 44.7606L28.916 45.2409L30.0539 44.7606C34.0736 43.0611 36.6746 39.1449 36.6746 34.7779V28.2458C33.8889 28.002 31.2288 27.0636 28.916 25.4897C26.6032 27.0636 23.9431 28.0094 21.1574 28.2458Z" fill="black"/>
<path d="M24.092 38.783C23.7668 38.783 23.4565 38.5983 23.3235 38.2805C22.8654 37.2313 22.6289 36.1229 22.6289 34.9776V30.3372C22.6289 29.8865 22.9836 29.517 23.4343 29.4948C25.2373 29.4283 26.9663 28.8298 28.4146 27.7584C28.7102 27.5441 29.1166 27.5441 29.4122 27.7584C30.8678 28.8298 32.5895 29.4283 34.3925 29.4948C34.8432 29.5096 35.1979 29.8791 35.1979 30.3372V32.0071C35.1979 32.4727 34.821 32.8495 34.3555 32.8495C33.89 32.8495 33.5131 32.4727 33.5131 32.0071V31.1131C31.8654 30.9283 30.2915 30.3594 28.9023 29.4579C27.5131 30.3667 25.9393 30.9283 24.2915 31.1131V34.9776C24.2915 35.8864 24.4762 36.7732 24.8383 37.6081C25.023 38.0367 24.8309 38.5318 24.4023 38.7165C24.3136 38.7608 24.2028 38.783 24.092 38.783Z" fill="black"/>
<path d="M28.9173 43.0245C28.8065 43.0245 28.6956 43.0024 28.5922 42.958L27.6612 42.5664C26.6932 42.16 25.8287 41.5763 25.0823 40.8447C24.7498 40.5196 24.7498 39.9876 25.075 39.6551C25.4001 39.3226 25.9321 39.3226 26.2646 39.6477C26.8557 40.2314 27.5503 40.6969 28.3188 41.0221L28.9247 41.2733L29.5306 41.0221C31.873 40.0319 33.4469 37.7487 33.5356 35.2068C33.5503 34.7413 33.942 34.3792 34.4001 34.394C34.8656 34.4088 35.2277 34.8004 35.2129 35.2585C35.1021 38.458 33.1291 41.325 30.1883 42.5664L29.2572 42.958C29.139 43.0024 29.0282 43.0245 28.9173 43.0245Z" fill="black"/>
</svg>
