<svg width="230" height="76" viewBox="0 0 230 76" fill="none" xmlns="http://www.w3.org/2000/svg">
<path d="M20.1236 -0.000181894C23.5746 -0.000181894 26.2464 0.361621 28.1389 1.08523C30.0314 1.75317 31.6456 2.47677 32.9815 3.25604C33.6495 3.64568 34.1782 3.95182 34.5679 4.17447C35.0132 4.34145 35.4306 4.42494 35.8203 4.42494C36.3769 4.42494 36.7665 4.1188 36.9892 3.50652C37.2675 2.89424 37.4901 1.97582 37.6571 0.751255H39.5775C39.5218 1.86449 39.4383 3.17255 39.327 4.67542C39.2713 6.1783 39.2157 8.18213 39.16 10.6869C39.16 13.136 39.16 16.3923 39.16 20.4556H37.2397C37.017 17.4498 36.3212 14.5554 35.1523 11.7723C33.9834 8.98922 32.3692 6.67925 30.3097 4.84241C28.3059 3.00556 25.8289 2.08714 22.8789 2.08714C20.3184 2.08714 18.2033 2.81075 16.5334 4.25796C14.8635 5.64951 14.0286 7.65334 14.0286 10.2694C14.0286 12.3846 14.5574 14.2215 15.615 15.78C16.6726 17.2829 18.2589 18.8136 20.3741 20.3721C22.5449 21.9306 25.2723 23.851 28.5564 26.1331C31.1725 27.8586 33.5103 29.5842 35.5698 31.3097C37.6293 33.0352 39.2713 34.9834 40.4959 37.1542C41.7761 39.325 42.4162 41.9411 42.4162 45.0025C42.4162 48.6762 41.4143 51.7376 39.4105 54.1867C37.4066 56.5802 34.7627 58.3892 31.4786 59.6138C28.1946 60.7827 24.6044 61.3671 20.708 61.3671C17.09 61.3671 14.1956 61.0332 12.0248 60.3652C9.90962 59.6973 8.10061 59.0015 6.59773 58.2779C5.37317 57.4986 4.42692 57.109 3.75897 57.109C3.20235 57.109 2.78489 57.4151 2.50658 58.0274C2.28393 58.6397 2.08911 59.5581 1.92213 60.7827H0.00179016C0.113114 59.3911 0.168776 57.7769 0.168776 55.9401C0.224438 54.0476 0.252269 51.6263 0.252269 48.6762C0.307931 45.7261 0.335762 41.9689 0.335762 37.4047H2.2561C2.47875 41.1897 3.09103 44.7242 4.09295 48.0083C5.15052 51.2923 6.73689 53.9641 8.85204 56.0236C11.0229 58.0274 13.8895 59.0293 17.4518 59.0293C19.4557 59.0293 21.209 58.6954 22.7119 58.0274C24.2147 57.3595 25.4115 56.3854 26.3021 55.1052C27.1927 53.7693 27.638 52.1551 27.638 50.2626C27.638 47.9248 27.1092 45.8931 26.0516 44.1676C24.994 42.4421 23.5468 40.8279 21.71 39.325C19.8731 37.7665 17.7301 36.2079 15.281 34.6494C12.6649 32.9239 10.2158 31.1705 7.93362 29.3893C5.65148 27.6082 3.81464 25.6322 2.42309 23.4613C1.0872 21.2349 0.419255 18.5631 0.419255 15.446C0.419255 11.8836 1.33768 8.96139 3.17452 6.67925C5.01137 4.39711 7.43266 2.72725 10.4384 1.66968C13.4998 0.556437 16.7282 -0.000181894 20.1236 -0.000181894ZM69.3557 15.78C74.254 15.78 78.0947 17.2272 80.8778 20.1216C83.6609 23.016 85.0524 27.7751 85.0524 34.3989H58.2512L58.1677 32.8126H73.6974C73.8087 30.0851 73.6974 27.5803 73.3634 25.2982C73.0294 22.9604 72.4728 21.0957 71.6935 19.7042C70.9699 18.3126 69.9959 17.6168 68.7713 17.6168C67.1014 17.6168 65.682 18.8136 64.5131 21.207C63.3442 23.6005 62.6206 27.6638 62.3423 33.397L62.6763 33.9815C62.565 34.5937 62.5093 35.2338 62.5093 35.9018C62.5093 36.5141 62.5093 37.182 62.5093 37.9056C62.5093 41.7463 63.0103 44.8077 64.0122 47.0898C65.0698 49.372 66.3778 50.9862 67.9364 51.9324C69.4949 52.8787 71.1091 53.3518 72.779 53.3518C73.7252 53.3518 74.7828 53.2127 75.9517 52.9344C77.1206 52.656 78.3451 52.0716 79.6254 51.181C80.9056 50.2904 82.1302 48.9824 83.2991 47.2568L84.7184 47.7578C84.1062 49.9286 83.0486 52.0716 81.5457 54.1867C80.0985 56.2462 78.2338 57.9718 75.9517 59.3633C73.6695 60.6992 70.9143 61.3671 67.6859 61.3671C64.0122 61.3671 60.7281 60.6157 57.8337 59.1128C54.9393 57.5543 52.6293 55.133 50.9038 51.8489C49.2339 48.5092 48.399 44.1676 48.399 38.824C48.399 33.5362 49.3174 29.1945 51.1543 25.7991C52.9911 22.4038 55.4959 19.899 58.6686 18.2848C61.8414 16.6149 65.4037 15.78 69.3557 15.78ZM105.918 75.8949C102.3 75.8949 99.1271 75.5888 96.3996 74.9765C93.6722 74.4199 91.557 73.5571 90.0542 72.3882C88.5513 71.275 87.7999 69.9113 87.7999 68.2971C87.7999 66.6272 88.5791 65.0965 90.1377 63.7049C91.6962 62.3691 94.0897 61.3115 97.3181 60.5322L98.0695 61.8681C97.1232 62.8144 96.4553 63.7328 96.0657 64.6234C95.676 65.5696 95.4812 66.488 95.4812 67.3786C95.4812 69.6608 96.511 71.4141 98.5705 72.6387C100.63 73.8633 103.469 74.4755 107.087 74.4755C109.592 74.4755 111.762 74.1137 113.599 73.3901C115.436 72.7222 116.855 71.7481 117.857 70.4679C118.859 69.1877 119.36 67.6848 119.36 65.9593C119.36 64.3451 118.748 62.9813 117.523 61.8681C116.354 60.7549 113.961 60.1982 110.343 60.1982H105.5C103.107 60.1982 101.047 59.8921 99.3219 59.2798C97.5964 58.6675 96.2605 57.8048 95.3142 56.6915C94.4236 55.5783 93.9783 54.1867 93.9783 52.5169C93.9783 50.0121 94.9524 47.8969 96.9006 46.1714C98.8488 44.3902 101.548 42.7482 104.999 41.2453L105.751 41.9133C104.916 42.4142 104.109 42.9987 103.33 43.6666C102.606 44.3346 102.244 45.2252 102.244 46.3384C102.244 48.1196 103.302 49.0102 105.417 49.0102H114.017C117.356 49.0102 120.306 49.3998 122.867 50.1791C125.427 50.9027 127.431 52.1273 128.878 53.8528C130.381 55.5226 131.133 57.7213 131.133 60.4487C131.133 63.2318 130.242 65.7923 128.461 68.1301C126.68 70.4679 123.924 72.3326 120.195 73.7241C116.521 75.1713 111.762 75.8949 105.918 75.8949ZM107.003 42.4142C103.664 42.4142 100.686 41.9411 98.0695 40.9949C95.509 40.0486 93.4774 38.6014 91.9745 36.6532C90.4716 34.6494 89.7202 32.1168 89.7202 29.0554C89.7202 25.994 90.4716 23.4892 91.9745 21.541C93.4774 19.5928 95.509 18.1456 98.0695 17.1994C100.686 16.2531 103.664 15.78 107.003 15.78C110.287 15.78 113.237 16.2531 115.853 17.1994C118.47 18.1456 120.529 19.5928 122.032 21.541C123.535 23.4892 124.286 25.994 124.286 29.0554C124.286 32.1168 123.535 34.6494 122.032 36.6532C120.529 38.6014 118.47 40.0486 115.853 40.9949C113.237 41.9411 110.287 42.4142 107.003 42.4142ZM107.003 40.9114C108.228 40.9114 109.202 40.0486 109.925 38.3231C110.705 36.5976 111.094 33.5083 111.094 29.0554C111.094 24.6024 110.705 21.541 109.925 19.8711C109.202 18.1456 108.228 17.2829 107.003 17.2829C105.723 17.2829 104.721 18.1456 103.997 19.8711C103.274 21.541 102.912 24.6024 102.912 29.0554C102.912 33.5083 103.274 36.5976 103.997 38.3231C104.721 40.0486 105.723 40.9114 107.003 40.9114ZM120.279 23.0439L118.525 22.4594C119.416 20.1773 120.78 18.3404 122.616 16.9489C124.509 15.5017 126.568 14.7781 128.795 14.7781C130.632 14.7781 131.995 15.279 132.886 16.2809C133.832 17.2829 134.305 18.5909 134.305 20.2051C134.305 21.8193 133.86 23.0717 132.97 23.9623C132.135 24.7972 131.133 25.2147 129.964 25.2147C128.962 25.2147 128.043 24.8807 127.209 24.2128C126.374 23.4892 125.9 22.4316 125.789 21.04C125.678 19.5928 126.179 17.7838 127.292 15.613L127.793 16.114C125.733 16.8376 124.147 17.7282 123.034 18.7857C121.976 19.8433 121.058 21.2627 120.279 23.0439ZM168.414 15.78C170.863 15.78 172.812 16.0861 174.259 16.6984C175.762 17.3107 176.903 18.09 177.682 19.0362C178.573 20.0938 179.213 21.4575 179.602 23.1274C180.048 24.7972 180.27 27.0515 180.27 29.8903V52.4334C180.27 54.7712 180.632 56.3576 181.356 57.1925C182.135 58.0274 183.443 58.4449 185.28 58.4449V60.1982C184.167 60.1426 182.497 60.0869 180.27 60.0313C178.099 59.9199 175.984 59.8643 173.925 59.8643C171.643 59.8643 169.444 59.9199 167.329 60.0313C165.214 60.0869 163.627 60.1426 162.57 60.1982V58.4449C164.128 58.4449 165.214 58.0274 165.826 57.1925C166.438 56.3576 166.744 54.7712 166.744 52.4334V25.8826C166.744 24.6024 166.605 23.517 166.327 22.6264C166.049 21.6802 165.575 20.9844 164.908 20.5391C164.24 20.0381 163.293 19.7876 162.069 19.7876C160.789 19.7876 159.592 20.1216 158.479 20.7896C157.421 21.4575 156.558 22.4038 155.89 23.6283C155.278 24.7972 154.972 26.1331 154.972 27.636V52.4334C154.972 54.7712 155.278 56.3576 155.89 57.1925C156.503 58.0274 157.588 58.4449 159.147 58.4449V60.1982C158.089 60.1426 156.558 60.0869 154.554 60.0313C152.551 59.9199 150.519 59.8643 148.459 59.8643C146.177 59.8643 143.895 59.9199 141.613 60.0313C139.331 60.0869 137.605 60.1426 136.436 60.1982V58.4449C138.273 58.4449 139.554 58.0274 140.277 57.1925C141.056 56.3576 141.446 54.7712 141.446 52.4334V26.0496C141.446 23.5448 141.084 21.708 140.361 20.5391C139.637 19.3145 138.329 18.7022 136.436 18.7022V16.9489C138.218 17.1159 139.943 17.1994 141.613 17.1994C144.118 17.1994 146.483 17.1159 148.71 16.9489C150.992 16.7262 153.079 16.4201 154.972 16.0305V22.7934C156.308 20.2329 158.117 18.4239 160.399 17.3664C162.737 16.3088 165.409 15.78 168.414 15.78ZM199.485 60.7827C196.925 60.7827 194.81 60.3096 193.14 59.3633C191.47 58.3614 190.245 57.0533 189.466 55.4391C188.687 53.8249 188.297 52.0994 188.297 50.2626C188.297 47.9248 188.826 46.0044 189.884 44.5016C190.997 42.9987 192.416 41.802 194.142 40.9114C195.867 39.9651 197.676 39.1858 199.569 38.5736C201.461 37.9613 203.27 37.3768 204.996 36.8202C206.721 36.2079 208.113 35.5122 209.171 34.7329C210.228 33.898 210.757 32.8404 210.757 31.5602V24.6302C210.757 23.4057 210.562 22.2646 210.172 21.207C209.839 20.0938 209.198 19.2032 208.252 18.5353C207.362 17.8116 206.109 17.4498 204.495 17.4498C203.493 17.4498 202.519 17.589 201.573 17.8673C200.626 18.1456 199.792 18.5909 199.068 19.2032C200.849 19.8155 202.157 20.7339 202.992 21.9585C203.883 23.183 204.328 24.5467 204.328 26.0496C204.328 28.1091 203.604 29.7511 202.157 30.9757C200.766 32.1446 199.096 32.7291 197.148 32.7291C195.032 32.7291 193.39 32.0611 192.222 30.7252C191.108 29.3893 190.552 27.7751 190.552 25.8826C190.552 24.2128 190.969 22.8212 191.804 21.708C192.639 20.5391 193.864 19.4815 195.478 18.5353C197.092 17.589 199.04 16.8932 201.322 16.4479C203.604 16.0026 206.026 15.78 208.586 15.78C211.202 15.78 213.596 16.0583 215.767 16.6149C217.993 17.1159 219.886 18.1456 221.444 19.7042C222.669 20.9844 223.448 22.5429 223.782 24.3798C224.116 26.2166 224.283 28.5544 224.283 31.3932V53.9363C224.283 55.3278 224.394 56.3019 224.617 56.8585C224.895 57.3595 225.313 57.61 225.869 57.61C226.37 57.61 226.843 57.4708 227.289 57.1925C227.734 56.9142 228.179 56.608 228.624 56.2741L229.543 57.6935C228.318 58.6954 226.871 59.4746 225.201 60.0313C223.531 60.5322 221.722 60.7827 219.774 60.7827C217.548 60.7827 215.794 60.5044 214.514 59.9478C213.29 59.3355 212.399 58.5284 211.842 57.5265C211.341 56.5246 211.063 55.4113 211.007 54.1867C209.783 56.1906 208.252 57.8048 206.415 59.0293C204.578 60.1982 202.268 60.7827 199.485 60.7827ZM206.415 54.7712C207.306 54.7712 208.085 54.6042 208.753 54.2702C209.477 53.8806 210.145 53.2405 210.757 52.3499V34.9834C210.312 35.7626 209.699 36.5141 208.92 37.2377C208.196 37.9056 207.417 38.6014 206.582 39.325C205.747 39.9929 204.94 40.7444 204.161 41.5793C203.437 42.4142 202.825 43.4162 202.324 44.5851C201.879 45.6983 201.656 47.062 201.656 48.6762C201.656 50.847 202.102 52.4056 202.992 53.3518C203.883 54.2981 205.024 54.7712 206.415 54.7712Z" fill="black"/>
</svg>
