<?xml version="1.0" encoding="UTF-8"?>
<svg id="Calque_1" data-name="Calque 1" xmlns="http://www.w3.org/2000/svg" viewBox="0 0 2560 2560">
  <defs>
    <style>
      .cls-1 {
        fill: #f4f2e9;
      }

      .cls-2 {
        fill: #1d1d1b;
      }
    </style>
  </defs>
  <path class="cls-1" d="M292.04,1576.9s335.1,246.36,922.95,246.36,832.92-334.87,832.92-334.87c0,0-478.41-333.56-806.42-304.78-328,28.78-963.97,392.28-963.97,392.28"/>
  <g>
    <path class="cls-2" d="M174.08,1557.76l103.44,18.13c13.52,2.37,27.43.75,40.03-4.67l399.31-171.54c261.39-112.29,552.65-138.69,828.64-69.66,104.8,26.21,218.14,66.41,337.29,126.14,0,0,203.54,89.44,287.11-27.98,0,0-81.89,7.92-123.14-30.16-41.26-38.08-182.94-191.51-608.7-260.75-161.15-26.21-300.39-15.58-436.12,12.99-119.55,25.16-230.72,72.15-339.02,128.68l-492.24,256.96c-9.9,5.17-7.61,19.95,3.39,21.87Z"/>
    <path class="cls-2" d="M1300.93,1145.31c293.21-41.16,349.52-187.6,349.52-187.6.34-.44,1.41.27.87.17-.87-.17,32.55,33.43-27.55,112.65-18.72,24.67-46.78,54.65-84.3,72.05-.52.24-.2,1.04.35.87,250.55-77.62,337.85-216.63,337.85-216.63.19-.51.87-.33.91.22,4.52,61.93-28,123.3-69.91,162.28-44.44,41.33-88.41,64.16-153.99,88.64,196.58-32.99,380.43-101.41,445.76-281.97.18-.5.92-.42.9.1,0,0,42.44,110.18-32.2,200.95-53.44,64.99-105.92,92.98-205.52,108.57-.59.09-.37.89.22.9,323.22,5.87,429.8-217.59,429.8-217.59.3-.33.87-.09.83.36-19.34,244.04-164.09,298.2-326.85,299.09-.55,0-33.94-7.82-33.41-7.69,153.85,39.78,280.28,14.02,407.88-93.33.35-.3.87.06.73.51,0,0-65.2,113.47-110.05,154.47-65.07,59.48-146.54,84.71-212.05,39.16-23.87-16.6-27.7-21.58-43.61-35.02-26.3-22.21-36.96-30.37-72.75-49.23-154.04-81.19-323.74-120.48-492.57-151.48"/>
    <path class="cls-2" d="M1203.67,1285.84c-199.76,0-360.07-25.85-360.07,152.15s161.94,322.3,361.7,322.3,361.7-144.3,361.7-322.3-163.58-152.15-363.34-152.15ZM937.73,1430.31c-43.85,25.29-37.23,62.33-40.8,61.58-8.45-1.76-18.15-40.48-7.75-72.89,10.42-32.46,41.47-58.51,65.7-46.65,17.46,8.55,16.6,38.49-17.15,57.95Z"/>
  </g>
</svg>